<?xml version="1.0" standalone="no"?>
<!DOCTYPE svg PUBLIC "-//W3C//DTD SVG 20010904//EN"
 "http://www.w3.org/TR/2001/REC-SVG-20010904/DTD/svg10.dtd">
<svg version="1.0" xmlns="http://www.w3.org/2000/svg"
 width="2000.000000pt" height="3028.000000pt" viewBox="0 0 2000.000000 3028.000000"
 preserveAspectRatio="xMidYMid meet">

<g transform="translate(0.000000,3028.000000) scale(0.100000,-0.100000)"
fill="#000000" stroke="none">
<path d="M9963 26269 c-17 -5 -42 -22 -54 -37 -29 -36 -7217 -11316 -7242
-11365 -22 -42 -18 -88 11 -124 9 -12 1653 -952 3652 -2089 2925 -1664 3642
-2068 3670 -2068 28 0 739 400 3645 2053 1986 1130 3624 2062 3641 2072 40 24
68 81 60 121 -3 16 -739 1180 -1635 2586 -896 1406 -2527 3965 -3624 5687
-1097 1721 -2005 3137 -2018 3146 -32 23 -67 29 -106 18z m3552 -5863 c1857
-2914 3375 -5300 3373 -5301 -2 -2 -1524 673 -3383 1500 l-3380 1503 -3 3808
c-1 2362 2 3804 7 3799 5 -6 1529 -2394 3386 -5309z m-3645 1502 l-1 -3803
-3377 -1501 c-1857 -826 -3378 -1501 -3380 -1499 -3 2 6751 10605 6756 10605
1 0 2 -1711 2 -3802z m0 -7528 c0 -1897 -2 -3450 -4 -3450 -7 0 -6790 3860
-6798 3868 -5 6 6769 3028 6795 3031 4 1 7 -1551 7 -3449z m3674 1935 c2553
-1135 3392 -1513 3383 -1521 -19 -17 -6785 -3864 -6797 -3864 -7 0 -10 1124
-10 3451 0 3022 2 3450 15 3447 8 -2 1542 -682 3409 -1513z"/>
<path d="M2722 13814 c-41 -21 -62 -60 -62 -113 0 -38 26 -75 383 -549 3648
-4842 6877 -9118 6896 -9131 31 -20 91 -20 122 0 19 13 3322 4385 6867 9091
385 512 412 550 412 588 0 56 -24 99 -65 116 -50 20 -73 17 -140 -19 -33 -18
-1652 -959 -3597 -2091 l-3538 -2058 -3587 2087 c-2434 1416 -3599 2089 -3623
2091 -21 3 -48 -2 -68 -12z m3839 -2450 c1812 -1054 3300 -1921 3307 -1926 9
-8 12 -514 12 -2469 0 -1353 -3 -2459 -7 -2459 -6 1 -6551 8675 -6602 8750 -7
11 -11 20 -9 20 2 0 1487 -862 3299 -1916z m10172 1904 c-4 -7 -1454 -1932
-3223 -4278 -1769 -2346 -3253 -4314 -3298 -4374 l-82 -109 2 2467 3 2467
3300 1919 c1815 1056 3301 1920 3303 1920 2 0 0 -6 -5 -12z"/>
</g>
</svg>
